<svg version="1.0" xmlns="http://www.w3.org/2000/svg" viewBox="0 0 1080 1080"><path d="M0 540v540h1080V0H0v540zm1040 0v500H40V40h1000v500z"/><path d="M516.5 71c-55.7 3.9-108.9 19.4-157.2 45.7-6.7 3.7-12.1 6.9-11.9 7.1.2.2 4.1-1.8 8.6-4.3 42.4-24.1 91.8-39.6 145-45.6 14.6-1.7 60.9-1.7 75.5-.1 37.8 4.3 69.2 11.9 102 24.9 71.4 28.2 133.9 78.9 176 142.9 52.4 79.5 72.8 174.6 57.4 268.4-19.3 118.3-94 220.1-201.6 274.6-104.3 52.9-229.1 53.7-333.7 2.1-28.2-13.9-48-26.3-70.7-44.4-16.6-13.3-45.4-41.8-58.1-57.9-59.2-74.2-87.5-161.9-82.8-255.8 2.2-41.5 9.4-76.8 23.4-113.5 20.3-53.2 48-95.6 89.5-137.1 10.2-10.2 17.2-17.3 15.6-15.9-1.7 1.4-4.8 4.1-7 6-7.4 6.2-32 31.3-39.1 39.9-43.4 52.6-70.1 109.4-82.8 176.5-3.8 20.1-5.6 42-5.6 67 0 60.6 12.7 114.7 39.5 169 18.7 37.8 40.9 68.8 71 99.1 55.6 55.9 123.7 91.7 202.5 106.3 67.8 12.6 143.2 5.2 207.4-20.5 51-20.4 91.3-47 130.2-85.8 31.4-31.4 53-61.4 71.8-99.4 18.9-38.1 29.6-72.3 36.3-116 2.6-16.7 2.7-19.7 2.7-53.2.1-37.1-.3-41.3-5.4-70.2-9.6-53.7-32-106-66-153.8-10.4-14.6-31.2-38.3-44.6-51C741.6 116.8 666 81.8 581 72.5c-17.2-1.8-49-2.6-64.5-1.5z"/><path d="M722.5 214.5c-16.7 1.6-37.7 4.7-53.5 8.1-12.1 2.5-32.9 7.7-36.8 9.1-1.3.5-5.9 5.1-10.2 10.2-8.5 9.8-9.2 9.9-6.9.2.5-2.4.8-4.5.6-4.7-.2-.2-5.2 1.7-11.3 4.2-8.2 3.4-11.7 5.4-14.2 8.2l-3.2 3.7.6-2.9.7-2.9-10.9 5.8c-28.4 15.1-54.4 32.4-82.5 55.1l-11.6 9.4-3.9 10c-3.9 10-5.8 12.7-4.9 7 .3-1.7.7-4.4 1-6 .2-1.7.1-3-.3-3-1 0-18.7 18.8-28.8 30.7-14.3 16.6-32 41.5-44.6 62.8-22.4 37.7-44.3 85.8-56.2 123.6-4.2 13.3-4.3 14.8-1.6 15 1.1.1 2.5.2 3 .3.6.1 2.6-3.6 4.5-8.2 24.3-59.5 102.8-154 179-215.8 49.7-40.2 111.8-77.4 164.5-98.5 5.2-2.1 9-3.8 8.3-3.8-3.7-.2-36 13.6-59.7 25.6-49.4 24.8-92.6 53.3-134.9 89-49.1 41.5-106.9 105.4-135.2 149.8-15.4 23.9 16.2-42.1 34.8-73 9.3-15.4 16.2-25.8 26.7-40 13.6-18.4 29.6-37.2 30.7-36.2.2.3-.3 8.7-1.2 18.7-1 10-1.5 18.3-1.3 18.6.3.2 2.6-4.7 5.1-10.8 14.2-34.7 21.1-50.5 22.5-52.2 2-2.3 21.7-18 32.3-25.9 18.4-13.5 52.2-34.8 53.4-33.5.2.2-1.7 6.1-4.1 13.2-2.4 7.1-4.2 13.1-4 13.3.2.2 2.6-2.7 5.3-6.4 20.9-28 23.2-30.7 28.6-33 2.9-1.1 5.3-2 5.3-2 .1.1-.8 5.6-2.1 12.2-1.9 10.7-2.2 13.8-1.2 12.4 8.2-10.4 29.6-34.3 31.4-35 3.4-1.3 28.2-7.5 37.3-9.3 21.3-4.3 43.8-7.3 61-8.2l11.5-.5-10.4 5.5c-12.6 6.7-29.5 17.9-41.1 27.2-19.9 15.9-44.5 42.3-61 65.4-4.5 6.3-8.7 11.8-9.4 12.1-.6.4-13.5 4.1-28.6 8.4-39.3 11-43.7 12.4-41.5 12.5 6.7.4 47.6 5.7 48.2 6.3.7.8-5.6 10.3-16.8 25.3-14.2 19-37.3 42.9-56 58.1-1.5 1.3-17.5 2.3-72.2 4.9-8.2.4-14.5 1-14 1.4.4.4 5.3 2.1 10.8 3.8 28.5 8.7 39.5 12.4 39.5 13 0 .4-3.1 2.4-6.8 4.5-6.7 3.6-7.3 3.7-27.8 5.7-11.5 1.1-21.6 2.2-22.4 2.4-.8.2 2.2 2 6.8 4.1 4.5 2.1 8.2 4.1 8.2 4.4 0 .3-2.8 1.7-6.2 3-22.5 8.5-52.9 29.9-74.3 52.2-9.3 9.7-19 20.9-20.2 23.4-.6 1.1-1.6 6.5-2.3 12-2.4 18.5-1.3 16.3-13.2 25.9-6 4.8-10.8 8.4-10.8 8 0-.4 1.6-3.7 3.6-7.4 2.7-4.8 4.6-7.2 7-8.3 4-1.9 5.1-5 3-8.2-2.1-3.3-5.2-4-8.2-2-2.1 1.3-2.5 2.3-2.3 5.9.2 3.3-.6 5.7-3.5 11-2.1 3.7-3.6 7-3.3 7.2.3.3 2.3-2.8 4.5-6.8 3-5.6 3.8-8.1 3.5-10.6-.6-3.8 1-6.2 4.2-6.2 5.3 0 5.8 6.8.6 8.9-2.1.9-4.2 3.8-8.5 11.5-3.1 5.7-5.6 10.6-5.6 10.9 0 .4 6.3-4.3 13.9-10.3 10.3-8.2 14.1-11.8 14.5-13.8.8-3.8 3.6-23.3 3.6-24.9 0-2.1 16.8-21 28.5-32.1 23.3-22 50.6-39.4 72.9-46.3l7.8-2.4-3.9-1.7c-2.1-1-5.5-2.4-7.7-3.3-2.1-.9-3.7-1.8-3.4-2 .2-.2 8-1.2 17.3-2.1l17-1.6 10.8-5.5c5.9-3 10.7-5.8 10.7-6.2 0-.4-5.3-2.4-11.7-4.4-6.5-2-15.8-5-20.8-6.6l-9-2.9 7.5-.6c4.1-.3 19.7-1.1 34.5-1.7l27-1.1 6.6-5.3c16.2-13.1 38.8-36.8 54.3-57 8.2-10.8 19.6-27.6 19.6-29 0-.8-5.4-1.8-15.2-2.9-8.4-1-16-2-16.8-2.3-1.5-.5 9-3.8 28-8.9 23.1-6.2 21.8-5.5 28.5-15.1 10.8-15.5 22.6-29.5 37.9-44.9 22.1-22.2 40-36 63.2-48.6 12.4-6.7 20.5-10 35.4-14.3l11.5-3.4-22.5.1c-12.4 0-28.8.6-36.5 1.3z"/><path d="M666.4 269.4c-16.3 15.6-28 29.3-38.5 44.8l-7.5 11.3-7 2.1c-8.4 2.7-7.7 3.1 1.2.7l6.5-1.7 6.6-10c9.3-14 19.3-25.7 37.2-43.9 8.6-8.7 15.8-16 16-16.3.2-.2.2-.4-.1-.4-.3 0-6.8 6-14.4 13.4zM561.1 274.6c-11.1 6.2-46.1 30.6-46.1 32.1 0 .3 1.5-.6 3.3-1.9 13.5-10.3 45.3-30.8 47.6-30.8.5 0 .6 1.2.3 2.7-.2 1.6-.2 2.6.1 2.3.9-.9 2.6-8 1.9-8-.4 0-3.6 1.6-7.1 3.6zM565.1 281.6c0 1.1.3 1.4.6.6.3-.7.2-1.6-.1-1.9-.3-.4-.6.2-.5 1.3zM589.8 334.7c.7.3 1.6.2 1.9-.1.4-.3-.2-.6-1.3-.5-1.1 0-1.4.3-.6.6zM452.2 366.7c-13.3 16.6-39.1 53.7-38 54.9.3.2 2.1-2.2 4.1-5.3 4.8-7.9 25.6-36.8 34.2-47.6 6.8-8.6 7-8.8 7.6-6 .5 2.5.6 2.4 1-1.5.2-2.3.1-4.2-.3-4.2s-4.2 4.4-8.6 9.7zM580.5 378.2c-7.8 10.5-21.5 25.6-35.2 38.9-18 17.5-19.6 18.7-25.8 19.2l-5 .3 5.4.2c5.3.2 5.5.1 13.5-6.8 20.6-17.6 39.8-38.5 50-54.3 3-4.5 1.3-3.1-2.9 2.5zM410.9 425.8c-.8 1.5-2.8 4.9-4.4 7.7-1.6 2.7-2.5 4.7-2.1 4.4 1.4-1.3 9.5-14.9 8.8-14.9-.4 0-1.4 1.2-2.3 2.8zM501.3 437.7c2 .2 5.4.2 7.5 0 2-.2.3-.4-3.8-.4s-5.8.2-3.7.4zM484.8 438.7c1.2.2 3.2.2 4.5 0 1.2-.2.2-.4-2.3-.4s-3.5.2-2.2.4zM440.5 483.3c.3.7-1.9 2.2-5.3 3.7-16.4 7-47.4 28.2-55.7 38.1-1.1 1.3-.2.8 2-1.2 12.8-11.6 39.8-29.3 56.3-36.8 5.4-2.5 6.2-3.5 3.8-4.4-.9-.4-1.3-.1-1.1.6zM333 566.6c-7.4 6.3-12.4 11.2-7 7 9.6-7.6 15-12 15-12.3 0-1-2.2.4-8 5.3zM320.6 580.2c-1.1 7.5-3.6 30.2-3.6 31.8.1.9.6.5 1.4-1 .8-1.3 1.2-3.8.9-5.5-.2-1.6.3-8.8 1.1-15.9.9-7.2 1.4-13.2 1.1-13.4-.2-.2-.6 1.6-.9 4zM322.2 641c-.1 3.6.5 9.4 1.3 12.9 5.2 22 23.5 33.7 49.4 31.7 15.9-1.2 24.5-4.2 45-15.6 27.9-15.4 39.7-17.5 67.2-12 11.8 2.4 20.8 5.1 41.4 12.4 19.7 7 30.7 9.1 43.1 8.2 4.9-.3 11-1.2 13.5-1.9 4.2-1.2 3.9-1.3-7.6-1.3-16.6-.1-25.7-2.2-46-10.9-22.2-9.4-36.5-13.5-53.8-15.5-20.2-2.3-38.6 2.7-59.7 16.2-19.4 12.5-35.8 17.5-53.8 16.5-25.1-1.3-37.1-14.4-39.5-43.2-.2-2.5-.4-1.6-.5 2.5zM423.7 883.7c-.4 4.3-.9 14.3-1.2 22.3-.8 18-.8 18-4.7 21.9-6.7 6.6-10.8 5.1-10.8-3.9 0-4.3-.5-6.4-2.1-8.4-3.6-4.5-7.7-2.8-11.9 4.9l-2.2 4 .5-5.2c.6-5.6-1-8.6-3.2-6-1.7 2.1-3.7 27.5-2.2 29 1.7 1.7 3.4-.7 7-10.2 3-8.1 6.4-14.1 8-14.1.5 0 1.1 2.9 1.4 6.5.8 11 5.3 13.9 15 10 1.4-.6 1.7-.2 1.7 2.3 0 1.7.5 3.4 1.1 3.8.9.5 1 6.6.5 22.8-.3 12.8-.2 22.7.3 23.5.5.8 1.6 1.1 2.5.8 1.3-.5 1.6-3.7 1.8-22.8l.3-22.3 2.9-.7c1.5-.4 3.6-1.5 4.7-2.4 1.7-1.6 2-1.6 4.8.4 10.3 7.4 18.7 4.3 27.1-9.8 4.4-7.3 5-10.1 2.3-10.1-1.2 0-3.5 2.9-6.3 7.6-5.3 9-8 11.4-12.7 11.4-3.5 0-9.3-2.7-9.3-4.3 0-.5 1.2-2.3 2.7-4.1 3.2-3.8 7.3-12.3 7.3-15.2 0-2.3-2.9-5.4-5.1-5.4-2.5 0-10.3 5.5-14.3 10.1l-3.8 4.4.6-10.5c2-35.7 2-38-.1-38-1.8 0-2.1.9-2.6 7.7zm20.3 32.8c0 2.2-3.4 8.7-6.5 12.4-2.6 3-2.7 3-5.6 1.6-1.6-.9-2.9-1.9-2.9-2.3.1-1.8 12.2-13.2 14.1-13.2.5 0 .9.7.9 1.5zM431 935c0 1.6-4.1 3.3-5.2 2.2-.6-.6-.7-1.5-.4-2.1.9-1.4 5.6-1.5 5.6-.1zM368.5 878.9c-.5.5-3.7 1.1-7 1.3-5.2.3-6 .6-6 2.3 0 1.8.6 2 6.3 1.7 5.5-.4 6.2-.2 6.2 1.5 0 1-.7 9.4-1.5 18.8-.8 9.3-1.5 22.9-1.5 30.2 0 7.2-.3 13.8-.6 14.7-.5 1.2-2.1 1.6-6.5 1.6-5.2 0-5.9.2-5.9 2s.7 2 6 2c4.5 0 6.2.4 6.6 1.5.8 1.9 3.1 1.9 4.1.1.5-1 2.9-1.6 6.8-1.8 5.2-.3 6-.6 6-2.3 0-1.8-.6-2-6.2-1.7l-6.3.3v-11.8c.1-6.5.5-16.5 1-22.3.5-5.8 1.2-15.6 1.6-21.8l.7-11.2h5.3c6.5 0 8.4-.7 8.4-3.1 0-1.7-.8-1.9-6.2-1.9-3.5 0-7.2-.3-8.3-.6-1.1-.3-2.4-.1-3 .5zM508.9 880.1c-7 4.1-9.1 13-6.4 25.8l1.8 8.2-2.4 1.6c-4.4 3-11.1 10.5-13 14.7-2.2 4.9-2.5 13.3-.5 18 .8 1.8 3.1 4.6 5.2 6.2 3.3 2.6 4.5 2.9 10.8 2.9 7.8-.1 13.1-2.1 17.5-6.9 3.1-3.3 3.9-3.2 7.5.4 3.1 3.2 6.6 4 6.6 1.5 0-.8-1.7-3-3.7-4.9l-3.8-3.4 2.9-5.9c1.6-3.2 4-9.2 5.2-13.3 2-6.2 2.2-7.7 1.1-8.8-1.8-1.8-2.9-.3-5.1 6.8-1.9 6.3-6.7 17-7.6 17-.9 0-10.7-15.2-13-20.1l-2-4.4 2.1-1.5c13.1-9.5 18.6-20.6 14.2-29-3.2-6.1-11.4-8.5-17.4-4.9zm12 5.5c4.5 5.8 1.5 14.1-7.9 21.9l-4.5 3.8-1.2-3.9c-2.4-8.2-1.3-18.5 2.4-22.6 2.6-2.9 8.7-2.4 11.2.8zM510 925.2c1.7 3.5 5.3 9.2 7.8 12.7l4.6 6.5-3.9 3.3c-5.5 4.7-13.2 7-18.4 5.4-7.1-2.1-10.8-10.5-8.1-18.5 1.3-3.9 11.4-15.6 13.5-15.6.6 0 2.7 2.8 4.5 6.2zM581 879.1c0 .5-3 .9-6.7 1.1-6 .3-6.8.5-6.8 2.3 0 1.8.6 2 6.3 1.7l6.2-.4v2.9c0 1.5-.5 8-1.1 14.3-.6 6.3-1.4 20-1.7 30.5l-.7 19-6 .5c-4.7.4-6.1.9-6.3 2.2-.3 1.6.5 1.8 5.8 1.8 4.5 0 6.2.4 6.6 1.5.8 1.9 3.3 1.9 4 0 .5-1.1 2.2-1.5 6.5-1.5 4.5 0 6.1-.4 6.6-1.6.9-2.3-1.6-3.5-6.2-2.9-6.8.9-6.9.7-6.2-17.2.6-15.1 2.1-36 3.3-45.1l.5-4.2h5.3c5.5 0 9.9-2.1 8.1-3.8-1.2-1.2-17.5-2.2-17.5-1.1zM598.9 914.7c-.8 2-.8 5.2 0 11.6 1.5 12.7 5.2 18.3 10.5 15.9 2-.9 3-2.7 4.8-8.7 1.6-5.4 2.6-7.4 3.6-7 .7.3 3.4.5 5.8.5h4.4v4.1c0 5.1 3.2 10.7 6.7 11.5 5.8 1.5 11.7-3.9 12.9-11.8.7-3.8.7-3.8 5.4-3.8h4.8l-.2 7.2c-.1 5.9.2 7.3 1.5 7.6 1.2.2 2-.9 2.8-4.4 2.7-10.6 8.6-18.4 15.7-20.9 5.6-1.9 5.8-4.5.3-4.5-3.8 0-4.8.6-9.6 5.3l-5.3 5.4v-5.4c0-4.5-.3-5.3-1.9-5.3-2.2 0-3.1 1.9-3.1 6.5 0 3.6-1.2 4.5-6.5 4.5-2.9 0-3.7-.5-5-3.4-3.4-7.2-8.4-9-12.6-4.5-1.5 1.7-3.1 3.8-3.4 4.8-1.2 4-12.1 3.7-12.7-.2-.2-1.4-1-2.2-2.2-2.2-1.6 0-2.2 1.2-3.3 6-1.6 7.5-4.2 14.5-5.3 14.5-1.6 0-3.3-7.4-3.9-16.4-.6-9.5-2.2-12.1-4.2-6.9zm41.4 8.7c3.8 3.2 3.8 3.3 2.8 7.2-.6 2.2-2.2 5.1-3.6 6.4-2.4 2.3-2.5 2.3-4.5.5-1.5-1.4-2-3.1-2-7.1 0-4.9 1.6-10.4 2.9-10.4.3.1 2.3 1.6 4.4 3.4zM706.4 912.8c-.6.4-1.7 2.5-2.4 4.7-3.3 10.3-10.8 20.1-14.8 19.3-2.6-.5-2.6-6.2-.1-13.9 1.7-5 2-7.2 1.2-8-1.7-1.7-3-.3-5.2 5.7-2.7 7.1-2.8 16.4-.3 18.7 4.3 3.9 12 .8 17.2-7.1l3.2-4.7-.4 11.3-.5 11.3-4 4.2c-13.3 14-19.4 28.8-14.7 35.6 1.3 1.9 2.2 2.2 4.7 1.7 1.7-.3 3.9-1.4 5-2.4 4.9-4.4 9.5-16.1 11.7-29.7 1.2-7 1.2-7 10.4-16.5 11.4-11.7 16-17.6 15.2-19.5-.9-2.5-3.1-1.7-5.8 2-2.9 4.1-16 18.5-16.8 18.5-.3 0-.3-6.7-.2-14.8.3-11.6.1-15.1-1-15.9-.7-.7-1.8-.9-2.4-.5zm-5.5 54.2c-2.2 9.4-6 17.5-9 19.1-3.2 1.7-4.2-.1-2.9-5.2 1.5-5.8 11-21.7 13.1-21.8.4-.1-.2 3.5-1.2 7.9z"/></svg>